<svg xmlns="http://www.w3.org/2000/svg" viewBox="0 0 202.47 115.73">
  <title>bike</title>
  <g id="1d79bfd5-1f18-4479-81a8-f60b9e4b99bf" data-name="Layer 2">
    <g id="f23232a6-44bc-49c5-9af1-4b1a3690bd0c" data-name="Bike">
      <g>
        <rect x="93.45" y="96.69" width="16.09" height="3.61" rx="1.8" ry="1.8" fill="#fff"/>
        <g>
          <g>
            <circle cx="33.99" cy="81.74" r="30.53" fill="none" stroke="#fff" stroke-linecap="round" stroke-linejoin="round" stroke-width="6.92"/>
            <circle cx="33.99" cy="81.74" r="7.53" fill="#fff"/>
          </g>
          <g>
            <circle cx="168.48" cy="81.74" r="30.53" fill="none" stroke="#fff" stroke-linecap="round" stroke-linejoin="round" stroke-width="6.92"/>
            <circle cx="168.48" cy="81.74" r="7.53" fill="#fff"/>
          </g>
          <polyline points="34.8 81.74 49.56 36.93 59.02 10.37" fill="none" stroke="#fff" stroke-linecap="round" stroke-linejoin="round" stroke-width="6.92"/>
          <line x1="63.85" y1="11.69" x2="48.97" y2="3.46" fill="none" stroke="#fff" stroke-linecap="round" stroke-linejoin="round" stroke-width="6.92"/>
          <polygon points="52.34 37.64 117.56 38.1 117.27 84.3 52.34 37.64" fill="none" stroke="#fff" stroke-linecap="round" stroke-linejoin="round" stroke-width="6.92"/>
          <line x1="117.55" y1="23.86" x2="117.55" y2="38.1" fill="none" stroke="#fff" stroke-linecap="round" stroke-linejoin="round" stroke-width="6.92"/>
          <line x1="107.19" y1="20.71" x2="126.3" y2="21.22" fill="none" stroke="#fff" stroke-linecap="round" stroke-linejoin="round" stroke-width="6.24"/>
          <polyline points="117.56 38.1 168.48 81.74 117.01 82.13" fill="none" stroke="#fff" stroke-linecap="round" stroke-linejoin="round" stroke-width="6.92"/>
          <rect x="107.91" y="72.84" width="70.22" height="18.03" rx="7.12" ry="7.12" stroke-dasharray="3.42 3.42" stroke="#fff" stroke-linecap="round" stroke-linejoin="round" stroke-width="1.38" fill="none"/>
          <circle cx="117.26" cy="82.27" r="7.01" fill="#fff"/>
          <rect x="107.76" y="80.25" width="4" height="21.8" rx="2" ry="2" transform="translate(76.82 -47.67) rotate(36.94)" fill="#fff"/>
          <rect x="121.25" y="63.1" width="4" height="21.8" rx="2" ry="2" transform="translate(69.22 -59.22) rotate(36.94)" fill="#fff"/>
          <rect x="116.76" y="64.86" width="16.09" height="3.61" rx="1.8" ry="1.8" fill="#fff"/>
        </g>
      </g>
    </g>
  </g>
</svg>
