<svg xmlns="http://www.w3.org/2000/svg" viewBox="0 0 165.35 171.56">
  <title>calendar</title>
  <g id="c95050a0-7923-4d4d-84ac-fad77ccab8fc" data-name="Layer 2">
    <g id="a1bf6d33-9944-40f7-a665-61f54ddfa22e" data-name="Calendar">
      <g>
        <rect x="6.78" y="31.31" width="151.79" height="133.47" rx="12" ry="12" fill="none" stroke="#fff" stroke-linecap="round" stroke-linejoin="round" stroke-width="13.56"/>
        <rect x="34" width="19.68" height="29.52" rx="9.84" ry="9.84" fill="#fff"/>
        <rect x="112.11" width="19.68" height="29.52" rx="9.84" ry="9.84" fill="#fff"/>
        <rect x="20.58" y="132.26" width="33.74" height="15.42" rx="4.02" ry="4.02" fill="#fff"/>
        <rect x="64.81" y="132.26" width="33.74" height="15.42" rx="4.02" ry="4.02" fill="#fff"/>
        <rect x="109.04" y="132.26" width="33.74" height="15.42" rx="4.02" ry="4.02" fill="#fff"/>
        <g>
          <path d="M40.14,114.31a2.07,2.07,0,0,1-2.07-2.07v-6.39a2.08,2.08,0,0,1,2.07-2.07H50.37v-35l-4.61,2.67a2,2,0,0,1-1,.28,2.05,2.05,0,0,1-1.42-.6l-4.53-4.53A2.14,2.14,0,0,1,38.15,65a1.78,1.78,0,0,1,1-1.7L52,56a2.12,2.12,0,0,1,1-.24h6.2a2,2,0,0,1,2.06,2v46.05H71.46a2.08,2.08,0,0,1,2.06,2.07v6.39a2.07,2.07,0,0,1-2.06,2.07Z" fill="#fff"/>
          <path d="M87.16,94.52a22.61,22.61,0,0,1,1.78-9.11c1-2.34,2.34-4.93,3.92-7.77,1.46-2.63,4-6.79,7.49-12.54,2.3-3.76,4-6.56,5-8.38a1.93,1.93,0,0,1,1.78-1h7.72a2,2,0,0,1,1.83,1,1.86,1.86,0,0,1,.28,1,2.17,2.17,0,0,1-.32,1.06l-9.23,15c6.35,0,11.45,1.94,15.34,5.79s5.82,8.82,5.82,14.93c0,12.18-8.66,20.72-20.72,20.72S87.16,106.7,87.16,94.52Zm30.59,0c0-6.52-3.52-10.4-9.88-10.4S98,88,98,94.52s3.56,10.4,9.91,10.4S117.75,101,117.75,94.52Z" fill="#fff"/>
        </g>
      </g>
    </g>
  </g>
</svg>
