<?xml version="1.0" encoding="UTF-8"?>
<svg width="32px" height="32px" viewBox="0 0 32 32" version="1.1" xmlns="http://www.w3.org/2000/svg" xmlns:xlink="http://www.w3.org/1999/xlink">
    <!-- Generator: Sketch 48.2 (47327) - http://www.bohemiancoding.com/sketch -->
    <title>Facebook</title>
    <desc>Created with Sketch.</desc>
    <defs></defs>
    <g id="Footer---Tablet" stroke="none" stroke-width="1" fill="none" fill-rule="evenodd" transform="translate(-626.000000, -132.000000)">
        <g id="Footer" fill="#FFFFFF" fill-rule="nonzero">
            <g id="Group" transform="translate(576.000000, 132.000000)">
                <g id="Facebook" transform="translate(50.000000, 0.000000)">
                    <g id="Facebook-color">
                        <g id="Icons">
                            <g id="Color-">
                                <path d="M16.9988048,31.825518 L1.75703381,31.825518 C0.78690977,31.8251519 0.000662962552,31.0386083 0.000663031625,30.0684842 L0.000663031625,1.75703381 C0.000487064734,1.29098554 0.185546087,0.843974874 0.515091996,0.514428964 C0.844637905,0.184883055 1.29164858,-0.000175966891 1.75769684,-1.5826429e-14 L30.0698103,-1.5826429e-14 C30.5357436,-3.31993942e-08 30.9825839,0.185136654 31.3119864,0.514663484 C31.6413889,0.844190314 31.8263569,1.29110045 31.826181,1.75703381 L31.826181,30.0684842 C31.8261811,31.0386083 31.0399343,31.8251519 30.0698103,31.825518 L21.9596074,31.825518 L21.9596074,19.5010862 L26.0969248,19.5010862 L26.7161963,14.6980851 L21.9596074,14.6980851 L21.9596074,11.6315638 C21.9596074,10.2405234 22.3461549,9.29305125 24.3398909,9.29305125 L26.8832803,9.29172519 L26.8832803,4.99594329 C26.4436903,4.93759651 24.9339673,4.80697928 23.1769335,4.80697928 C19.5103686,4.80697928 16.9994678,7.04537405 16.9994678,11.1555071 L16.9994678,14.6980851 L12.852205,14.6980851 L12.852205,19.5010862 L16.9994678,19.5010862 L16.9994678,31.825518 L16.9988048,31.825518 Z" id="Facebook"></path>
                            </g>
                        </g>
                    </g>
                </g>
            </g>
        </g>
    </g>
</svg>