<?xml version="1.0" encoding="UTF-8"?>
<svg width="32px" height="32px" viewBox="0 0 32 32" version="1.1" xmlns="http://www.w3.org/2000/svg" xmlns:xlink="http://www.w3.org/1999/xlink">
    <!-- Generator: Sketch 48.2 (47327) - http://www.bohemiancoding.com/sketch -->
    <title>Instagram</title>
    <desc>Created with Sketch.</desc>
    <defs></defs>
    <g id="Footer---Tablet" stroke="none" stroke-width="1" fill="none" fill-rule="evenodd" transform="translate(-576.000000, -132.000000)">
        <g id="Footer" fill="#FFFFFF" fill-rule="nonzero">
            <g id="Group" transform="translate(576.000000, 132.000000)">
                <g id="Instagram">
                    <g id="Instagram-black">
                        <g id="Icons">
                            <g id="Black">
                                <path d="M16,0 C11.6546667,0 11.11,0.0186666667 9.40333333,0.096 C7.7,0.174 6.53666667,0.444666667 5.51933333,0.84 C4.46733333,1.24866667 3.57466667,1.796 2.686,2.68533333 C1.796,3.57466667 1.24866667,4.46733333 0.84,5.51933333 C0.444666667,6.53733333 0.173333333,7.7 0.096,9.40333333 C0.0186666667,11.11 0,11.6546667 0,16 C0,20.3453333 0.0186666667,20.89 0.096,22.5966667 C0.174,24.3 0.444666667,25.4633333 0.84,26.4806667 C1.24866667,27.5326667 1.796,28.4253333 2.68533333,29.314 C3.57466667,30.204 4.46733333,30.7513333 5.51933333,31.1606667 C6.53733333,31.5553333 7.7,31.826 9.40333333,31.904 C11.11,31.9813333 11.6546667,32 16,32 C20.3453333,32 20.89,31.9813333 22.5966667,31.904 C24.3,31.826 25.4633333,31.5553333 26.4806667,31.16 C27.5326667,30.7513333 28.4253333,30.204 29.314,29.3146667 C30.204,28.4253333 30.7513333,27.5326667 31.1606667,26.4806667 C31.5553333,25.4626667 31.826,24.3 31.904,22.5966667 C31.9813333,20.89 32,20.3453333 32,16 C32,11.6546667 31.9813333,11.11 31.904,9.40333333 C31.826,7.7 31.5553333,6.53666667 31.16,5.51933333 C30.7513333,4.46733333 30.204,3.57466667 29.3146667,2.686 C28.4253333,1.796 27.5326667,1.24866667 26.4806667,0.84 C25.4626667,0.444666667 24.3,0.173333333 22.5966667,0.096 C20.89,0.0186666667 20.3453333,0 16,0 Z M16,2.88266667 C20.272,2.88266667 20.778,2.89933333 22.4653333,2.976 C24.0253333,3.04733333 24.872,3.308 25.4366667,3.52733333 C26.1833333,3.81733333 26.7166667,4.164 27.2766667,4.724 C27.836,5.284 28.1826667,5.81733333 28.4726667,6.564 C28.6926667,7.12733333 28.9526667,7.97466667 29.024,9.53466667 C29.1006667,11.2213333 29.1173333,11.728 29.1173333,16 C29.1173333,20.272 29.1006667,20.778 29.024,22.4653333 C28.9526667,24.0253333 28.692,24.872 28.4726667,25.4366667 C28.1826667,26.1833333 27.836,26.7166667 27.276,27.2766667 C26.716,27.836 26.1826667,28.1826667 25.436,28.4726667 C24.8726667,28.6926667 24.0253333,28.9526667 22.4653333,29.024 C20.7786667,29.1006667 20.272,29.1173333 16,29.1173333 C11.7273333,29.1173333 11.2213333,29.1006667 9.53466667,29.024 C7.97466667,28.9526667 7.128,28.692 6.56333333,28.4726667 C5.81666667,28.1826667 5.28333333,27.836 4.72333333,27.276 C4.164,26.716 3.81733333,26.1826667 3.52733333,25.436 C3.30733333,24.8726667 3.04733333,24.0253333 2.976,22.4653333 C2.89933333,20.7786667 2.88266667,20.272 2.88266667,16 C2.88266667,11.728 2.89933333,11.222 2.976,9.53466667 C3.04733333,7.97466667 3.308,7.128 3.52733333,6.56333333 C3.81733333,5.81666667 4.164,5.28333333 4.724,4.72333333 C5.284,4.164 5.81733333,3.81733333 6.564,3.52733333 C7.12733333,3.30733333 7.97466667,3.04733333 9.53466667,2.976 C11.2213333,2.89933333 11.728,2.88266667 16,2.88266667 Z M16,7.784 C11.462,7.784 7.784,11.462 7.784,16 C7.784,20.538 11.462,24.216 16,24.216 C20.538,24.216 24.216,20.538 24.216,16 C24.216,11.462 20.538,7.784 16,7.784 Z M16,21.3333333 C13.0544813,21.3333333 10.6666667,18.9455187 10.6666667,16 C10.6666667,13.0544813 13.0544813,10.6666667 16,10.6666667 C18.9455187,10.6666667 21.3333333,13.0544813 21.3333333,16 C21.3333333,18.9455187 18.9455187,21.3333333 16,21.3333333 Z M26.4606667,7.45933333 C26.4606667,8.51972005 25.6010534,9.37933333 24.5406667,9.37933333 C23.4802799,9.37933333 22.6206667,8.51972005 22.6206667,7.45933333 C22.6206667,6.39894661 23.4802799,5.53933333 24.5406667,5.53933333 C25.6010534,5.53933333 26.4606667,6.39894661 26.4606667,7.45933333 Z" id="Instagram"></path>
                            </g>
                        </g>
                    </g>
                </g>
            </g>
        </g>
    </g>
</svg>