<svg xmlns="http://www.w3.org/2000/svg" viewBox="0 0 126.43 119.47">
  <title>leaf-blue_1</title>
  <g id="867e6d65-7749-486c-81f7-d3d594a604c9" data-name="Layer 2">
    <g id="8e7cf336-8265-4a1c-a0b1-71cb36000642" data-name="Leaf">
      <g>
        <path d="M89.54,29c2.73,3.26,2.4,5.83-.1,7.21-17.41,9.6-27.67,25.38-38.93,41-.1.14-.21.28-.32.41C48.63,79.4,47,81.1,45.28,82.81,33.47,94.75,21.51,106.56,8.87,118a5.41,5.41,0,0,1-7,.33,5.1,5.1,0,0,1-1.75-2.9c-.15-2.09-.3-4.18.67-5.15C12.52,100.22,23.13,89.05,33.6,77.7L38.83,72C53.49,57.56,64.25,38.51,83,28.16a5.46,5.46,0,0,1,6.42.73Z" fill="#123847"/>
        <path d="M35.54,85.07s92.33-7.29,86-75.48a4.48,4.48,0,0,0-3.93-4C21-6.13,35.54,85.07,35.54,85.07Z" fill="none" stroke="#123847" stroke-linecap="round" stroke-linejoin="round" stroke-width="9.12"/>
        <rect x="11.4" y="102.06" width="31.11" height="10.11" rx="5.06" ry="5.06" transform="translate(14.33 -2.62) rotate(7.56)" fill="#123847"/>
      </g>
    </g>
  </g>
</svg>
