<svg xmlns="http://www.w3.org/2000/svg" viewBox="0 0 233.92 233.92">
  <title>nocar-blue_1</title>
  <g id="a085cc96-88b9-400a-ae7c-36626af019a4" data-name="Layer 2">
    <g id="b8096d34-3440-45e0-bcd8-4265999fceae" data-name="Car Free">
      <g>
        <g>
          <rect x="62.24" y="135.34" width="18.93" height="41.12" rx="9.46" ry="9.46" fill="#123847"/>
          <rect x="155.54" y="135.34" width="18.93" height="41.12" rx="9.46" ry="9.46" fill="#123847"/>
          <path d="M154.31,58.85H84.73A14.21,14.21,0,0,0,70.56,73v27.45c0,7.79,6.38,7.17,14.17,7.17h69.58c7.79,0,14.16.62,14.16-7.17V73A14.2,14.2,0,0,0,154.31,58.85ZM155.46,88a4.9,4.9,0,0,1-4.89,4.89H85.94A4.9,4.9,0,0,1,81.05,88V74.3a4.9,4.9,0,0,1,4.89-4.89h64.63a4.9,4.9,0,0,1,4.89,4.89Z" fill="#123847"/>
          <path d="M171.32,100.09H65.19A11.23,11.23,0,0,0,54,111.29v29.16a11.24,11.24,0,0,0,11.2,11.21H171.32a11.24,11.24,0,0,0,11.2-11.21V111.29A11.23,11.23,0,0,0,171.32,100.09ZM72.38,126a8.49,8.49,0,1,1,8.49-8.49A8.49,8.49,0,0,1,72.38,126ZM164,126a8.49,8.49,0,1,1,8.49-8.49A8.49,8.49,0,0,1,164,126Z" fill="#123847"/>
          <circle cx="72.38" cy="117.5" r="3.94" fill="#fff"/>
          <circle cx="164.33" cy="117.5" r="3.94" fill="#fff"/>
        </g>
        <rect x="105.37" y="1.14" width="24.4" height="233.18" rx="12.2" ry="12.2" transform="translate(117.45 284.1) rotate(-135)" fill="#123847"/>
        <circle cx="116.96" cy="116.96" r="106.96" fill="none" stroke="#123847" stroke-linecap="round" stroke-linejoin="round" stroke-width="20"/>
      </g>
    </g>
  </g>
</svg>
