<svg xmlns="http://www.w3.org/2000/svg" viewBox="0 0 989.17 651.89">
  <title>pattern_1</title>
  <g id="9568f7a6-6c37-4ff2-a85d-a30f5e2dffc9" data-name="Layer 2">
    <g id="564065b1-19c2-4746-889e-99a1a0c0d0ae" data-name="Pattern">
      <g>
        <g>
          <circle cx="583.29" cy="449.04" r="21.97" fill="none" stroke="#fff" stroke-linecap="round" stroke-linejoin="round" stroke-width="7.31"/>
          <circle cx="802.19" cy="449.04" r="21.97" fill="none" stroke="#fff" stroke-linecap="round" stroke-linejoin="round" stroke-width="7.31"/>
          <path d="M865.47,335.91c-64.69.1-239.87.33-288.58,0-53.42-.41-50.94,37.7-50.94,37.7v85.1h24.72l12.77-.2a22,22,0,1,1,40-.63l12.11-.19H782a22,22,0,1,1,40.43,0h67.28V360.1A24.19,24.19,0,0,0,865.47,335.91Z" fill="none" stroke="#fff" stroke-linecap="round" stroke-linejoin="round" stroke-width="7.31"/>
          <circle cx="583.29" cy="449.04" r="6.85" fill="#fff"/>
          <circle cx="802.19" cy="449.04" r="6.85" fill="#fff"/>
          <path d="M526.63,398.72H567c8.4,0,15.21-8.79,15.21-19.63V336.73" fill="none" stroke="#fff" stroke-linecap="round" stroke-linejoin="round" stroke-width="8.31"/>
          <rect x="601.26" y="357.28" width="42.97" height="36.02" rx="8.77" ry="8.77" fill="none" stroke="#fff" stroke-miterlimit="10" stroke-width="5.82"/>
          <rect x="661.73" y="357.28" width="42.97" height="36.02" rx="8.77" ry="8.77" fill="none" stroke="#fff" stroke-miterlimit="10" stroke-width="5.82"/>
          <rect x="718.9" y="357.28" width="42.97" height="36.02" rx="8.77" ry="8.77" fill="none" stroke="#fff" stroke-miterlimit="10" stroke-width="5.82"/>
          <rect x="774.4" y="357.28" width="42.97" height="36.02" rx="8.77" ry="8.77" fill="none" stroke="#fff" stroke-miterlimit="10" stroke-width="5.82"/>
          <rect x="829.29" y="357.28" width="42.97" height="36.02" rx="8.77" ry="8.77" fill="none" stroke="#fff" stroke-miterlimit="10" stroke-width="5.82"/>
          <rect x="888.23" y="446.35" width="13.96" height="8" rx="3.21" ry="3.21" fill="#fff"/>
        </g>
        <g>
          <rect x="301.95" y="188.83" width="16.09" height="3.61" rx="1.8" ry="1.8" fill="#fff"/>
          <g>
            <g>
              <circle cx="242.49" cy="173.89" r="30.53" fill="none" stroke="#fff" stroke-linecap="round" stroke-linejoin="round" stroke-width="6.92"/>
              <circle cx="242.49" cy="173.89" r="7.53" fill="#fff"/>
            </g>
            <g>
              <circle cx="376.98" cy="173.89" r="30.53" fill="none" stroke="#fff" stroke-linecap="round" stroke-linejoin="round" stroke-width="6.92"/>
              <circle cx="376.98" cy="173.89" r="7.53" fill="#fff"/>
            </g>
            <polyline points="243.3 173.89 258.06 129.07 267.52 102.52" fill="none" stroke="#fff" stroke-linecap="round" stroke-linejoin="round" stroke-width="6.92"/>
            <line x1="272.34" y1="103.84" x2="257.47" y2="95.61" fill="none" stroke="#fff" stroke-linecap="round" stroke-linejoin="round" stroke-width="6.92"/>
            <polygon points="260.84 129.79 326.05 130.25 325.76 176.45 260.84 129.79" fill="none" stroke="#fff" stroke-linecap="round" stroke-linejoin="round" stroke-width="6.92"/>
            <line x1="326.05" y1="116.01" x2="326.05" y2="130.25" fill="none" stroke="#fff" stroke-linecap="round" stroke-linejoin="round" stroke-width="6.92"/>
            <line x1="315.69" y1="112.85" x2="334.8" y2="113.37" fill="none" stroke="#fff" stroke-linecap="round" stroke-linejoin="round" stroke-width="6.24"/>
            <polyline points="326.05 130.25 376.98 173.89 325.51 174.28" fill="none" stroke="#fff" stroke-linecap="round" stroke-linejoin="round" stroke-width="6.92"/>
            <rect x="316.41" y="164.99" width="70.22" height="18.03" rx="7.12" ry="7.12" stroke-dasharray="3.42 3.42" stroke="#fff" stroke-linecap="round" stroke-linejoin="round" stroke-width="1.38" fill="none"/>
            <circle cx="325.76" cy="174.42" r="7.01" fill="#fff"/>
            <rect x="316.26" y="172.4" width="4" height="21.8" rx="2" ry="2" transform="translate(174.06 -154.48) rotate(36.94)" fill="#fff"/>
            <rect x="329.75" y="155.24" width="4" height="21.8" rx="2" ry="2" transform="translate(166.46 -166.03) rotate(36.94)" fill="#fff"/>
            <rect x="325.26" y="157.01" width="16.09" height="3.61" rx="1.8" ry="1.8" fill="#fff"/>
          </g>
        </g>
        <g>
          <path d="M130.8,485.46c1.9,2.26,1.67,4.06-.07,5-12.17,6.72-19.32,17.77-27.2,28.67-1.12,1.33-2.33,2.56-3.54,3.78C91.51,531.51,82.91,540,73.8,548.19a3.76,3.76,0,0,1-5.25-2.55c-.11-1.46-.21-2.91.46-3.59a273.2,273.2,0,0,0,22.85-22.68l3.64-4c10.6-10.45,18.27-24.36,32.32-31.34A4.7,4.7,0,0,1,130.8,485.46Z" fill="#fff"/>
          <path d="M99.48,517.54s66.47-5.25,59.59-55C89.1,452.53,99.48,517.54,99.48,517.54Z" fill="none" stroke="#fff" stroke-linecap="round" stroke-linejoin="round" stroke-width="6.35"/>
          <rect x="83.37" y="530.76" width="21.66" height="7.04" rx="3.52" ry="3.52" transform="translate(71.14 -7.75) rotate(7.56)" fill="#fff"/>
        </g>
        <rect width="989.17" height="651.89" fill="none"/>
      </g>
    </g>
  </g>
</svg>
