<svg xmlns="http://www.w3.org/2000/svg" viewBox="0 0 635.43 260.26">
  <title>start_1</title>
  <g id="0031b5f1-bc2d-4125-91ad-4c1900880cd0" data-name="Layer 2">
    <g id="8d9bb9ba-2682-47b6-8d77-8f1ea1c85bcf" data-name="start">
      <g>
        <line x1="623.28" y1="255.06" x2="5.2" y2="255.06" fill="none" stroke="#143846" stroke-linecap="round" stroke-linejoin="round" stroke-width="10.4"/>
        <line x1="623.28" y1="4.84" x2="87.57" y2="4.84" fill="none" stroke="#143846" stroke-linecap="round" stroke-linejoin="round" stroke-width="9.69"/>
        <rect x="174.54" y="49.33" width="441.71" height="166.21" rx="29.19" ry="29.19" fill="none" stroke="#143846" stroke-linecap="round" stroke-linejoin="round" stroke-width="10"/>
        <rect x="357.91" y="96.35" width="96.77" height="62.68" rx="12" ry="12" fill="none" stroke="#143846" stroke-linecap="round" stroke-linejoin="round" stroke-width="10"/>
        <rect x="190.94" y="34.19" width="22.92" height="15.39" rx="6.29" ry="6.29" fill="#143846"/>
        <rect x="190.94" y="216.3" width="22.92" height="15.39" rx="6.29" ry="6.29" fill="#143846"/>
        <rect x="609.62" y="191.7" width="25.81" height="11.94" rx="5.46" ry="5.46" fill="#143846"/>
        <rect x="368.65" y="108.72" width="5.67" height="37.96" rx="2.83" ry="2.83" fill="#143846"/>
        <g>
          <path d="M111.48,220.56a11.58,11.58,0,0,1-4.22.79,12,12,0,0,1-5.8-1.41c-4.16-2.2-6.24-6.3-6.24-12.25A21.54,21.54,0,0,1,99,195.07a1.49,1.49,0,0,1,1.29-.71,1.3,1.3,0,0,1,.71.21l4,2.31a1.48,1.48,0,0,1,.76,1.29,1.39,1.39,0,0,1-.29.88,20.05,20.05,0,0,0-2,3.64,12.39,12.39,0,0,0-1.12,5,6.94,6.94,0,0,0,.91,3.67,3.4,3.4,0,0,0,3,1.78c1.93,0,3.81-1.43,5.6-4.33.61-1,1.31-2.32,2.16-3.84a43.2,43.2,0,0,1,4.43-6.83,10.56,10.56,0,0,1,4.3-3,11.46,11.46,0,0,1,4.22-.8,11.94,11.94,0,0,1,5.8,1.41c4.16,2.2,6.24,6.3,6.24,12.25a21.54,21.54,0,0,1-3.75,12.62,1.47,1.47,0,0,1-1.29.71,1.29,1.29,0,0,1-.7-.21l-4-2.31a1.46,1.46,0,0,1-.76-1.29,1.35,1.35,0,0,1,.29-.88,21.64,21.64,0,0,0,2-3.6,12.91,12.91,0,0,0,1.12-5,6.16,6.16,0,0,0-1.21-4,3.31,3.31,0,0,0-2.66-1.43c-1.91,0-3.58,1.11-5,3.37-.68,1.11-1.55,2.6-2.58,4.51a43.83,43.83,0,0,1-4.57,7.12A10.62,10.62,0,0,1,111.48,220.56Z" fill="#123847"/>
          <path d="M138.29,176.32a1.47,1.47,0,0,1-1.49,1.46H103.46v9.29a1.5,1.5,0,0,1-1.5,1.49H97.33a1.47,1.47,0,0,1-1.46-1.49V160.32a1.47,1.47,0,0,1,1.46-1.49H102a1.5,1.5,0,0,1,1.5,1.49v9.29H136.8a1.47,1.47,0,0,1,1.49,1.46Z" fill="#123847"/>
          <path d="M137.29,151.91a1.41,1.41,0,0,1,1,1.41v5.57a1.27,1.27,0,0,1-.64,1.23,1.88,1.88,0,0,1-.8.17,5,5,0,0,1-1.49-.41l-38.52-14a1.45,1.45,0,0,1-1-1.38v-7.18a1.4,1.4,0,0,1,1-1.4l38.52-14a5.35,5.35,0,0,1,1.49-.41,1.74,1.74,0,0,1,.8.18,1.25,1.25,0,0,1,.64,1.23v5.56a1.4,1.4,0,0,1-1,1.41l-9.61,3.4v15.18ZM120.07,136l-13.92,4.9,13.92,4.92Z" fill="#123847"/>
          <path d="M138.29,89.86a1.4,1.4,0,0,1-.73,1.29l-16.79,9.67V106h16a1.48,1.48,0,0,1,1.49,1.47v5.24a1.5,1.5,0,0,1-1.49,1.5H97.33a1.48,1.48,0,0,1-1.46-1.5V98.33a15.48,15.48,0,0,1,2.46-8.73,12.06,12.06,0,0,1,15.67-4,12.45,12.45,0,0,1,5.72,6.74L136.06,83a1.36,1.36,0,0,1,.74-.24,1.53,1.53,0,0,1,.76.24,1.34,1.34,0,0,1,.73,1.29Zm-25.14,8.47a7.07,7.07,0,0,0-1.11-4,4.67,4.67,0,0,0-7.44,0,6.86,6.86,0,0,0-1.14,4V106h9.69Z" fill="#123847"/>
          <path d="M138.29,66.81a1.47,1.47,0,0,1-1.49,1.46H103.46v9.29a1.5,1.5,0,0,1-1.5,1.49H97.33a1.47,1.47,0,0,1-1.46-1.49V50.81a1.47,1.47,0,0,1,1.46-1.49H102a1.5,1.5,0,0,1,1.5,1.49V60.1H136.8a1.47,1.47,0,0,1,1.49,1.46Z" fill="#123847"/>
        </g>
      </g>
    </g>
  </g>
</svg>
