<?xml version="1.0" encoding="UTF-8"?>
<svg width="32px" height="27px" viewBox="0 0 32 27" version="1.1" xmlns="http://www.w3.org/2000/svg" xmlns:xlink="http://www.w3.org/1999/xlink">
    <!-- Generator: Sketch 48.2 (47327) - http://www.bohemiancoding.com/sketch -->
    <title>Twitter</title>
    <desc>Created with Sketch.</desc>
    <defs></defs>
    <g id="Footer---Tablet" stroke="none" stroke-width="1" fill="none" fill-rule="evenodd" transform="translate(-677.000000, -134.000000)">
        <g id="Footer" fill="#FFFFFF" fill-rule="nonzero">
            <g id="Group" transform="translate(576.000000, 132.000000)">
                <g id="Twitter" transform="translate(101.000000, 2.000000)">
                    <g id="Twitter-color">
                        <g id="Icons">
                            <g id="Color-">
                                <path d="M32,3.15666667 C30.8050167,3.70093777 29.5335261,4.0584391 28.23,4.21666667 C29.6101732,3.36475377 30.6355049,2.04224165 31.1166667,0.493333333 C29.8317095,1.27563088 28.4200906,1.82768964 26.9453333,2.12466667 C25.7513333,0.816666667 24.044,0 22.154,0 C18.5306667,0 15.5913333,3.014 15.5913333,6.732 C15.5913333,7.25933333 15.648,7.772 15.7606667,8.26533333 C10.304,7.98333333 5.46733333,5.30666667 2.22733333,1.22866667 C1.6429106,2.26203607 1.33692002,3.42948664 1.33933333,4.61666667 C1.33933333,6.95133333 2.498,9.012 4.25933333,10.22 C3.21432197,10.1854249 2.19341047,9.89713528 1.28466667,9.38 L1.28466667,9.46266667 C1.28466667,12.7253333 3.548,15.4473333 6.55333333,16.0633333 C5.99058678,16.2228804 5.40825601,16.3027686 4.82333333,16.3006667 C4.40066667,16.3006667 3.98733333,16.26 3.58733333,16.1806667 C4.42333333,18.854 6.846,20.802 9.72,20.854 C7.47333333,22.6606667 4.64133333,23.7373333 1.56666667,23.7373333 C1.03666667,23.7373333 0.513333333,23.706 0,23.6446667 C2.906,25.5513333 6.358,26.6666667 10.064,26.6666667 C22.1406667,26.6666667 28.7433333,16.41 28.7433333,7.51333333 C28.7433333,7.22066667 28.7373333,6.928 28.726,6.64133333 C30.0163506,5.6842518 31.1251384,4.50411867 32,3.15666667" id="Twitter"></path>
                            </g>
                        </g>
                    </g>
                </g>
            </g>
        </g>
    </g>
</svg>