<?xml version="1.0" encoding="UTF-8"?>
<svg width="32px" height="33px" viewBox="0 0 32 33" version="1.1" xmlns="http://www.w3.org/2000/svg" xmlns:xlink="http://www.w3.org/1999/xlink">
    <!-- Generator: Sketch 48.2 (47327) - http://www.bohemiancoding.com/sketch -->
    <title>XMLID_1666_</title>
    <desc>Created with Sketch.</desc>
    <defs></defs>
    <g id="Detail---Desktop--HD" stroke="none" stroke-width="1" fill="none" fill-rule="evenodd" transform="translate(-1139.000000, -903.000000)">
        <g id="Sidebar" transform="translate(980.000000, 655.000000)" fill="#FFFFFF" fill-rule="nonzero">
            <g id="Links" transform="translate(0.000000, 198.000000)">
                <g id="Group-8" transform="translate(29.000000, 50.000000)">
                    <g id="Web" transform="translate(130.000000, 0.000000)">
                        <g id="Layer_1">
                            <path d="M16,0 C7.16521739,0 0,7.38913043 0,16.5 C0,25.6108696 7.16521739,33 16,33 C24.8347826,33 32,25.6108696 32,16.5 C32,7.38913043 24.8347826,0 16,0 Z M17.2869565,30.0586957 C17.2173913,30.0586957 17.1478261,30.0586957 17.0434783,30.0945652 L17.0434783,22.3108696 C18.8521739,22.275 20.4869565,22.2391304 21.9826087,22.1315217 C20.6608696,26.3282609 18.1913043,29.126087 17.2869565,30.0586957 Z M14.7130435,30.0586957 C13.773913,29.0902174 11.3391304,26.2923913 10.0173913,22.1315217 C11.4782609,22.2391304 13.1478261,22.3108696 14.9565217,22.3108696 L14.9565217,30.0945652 C14.8869565,30.0945652 14.8173913,30.0586957 14.7130435,30.0586957 Z M2.7826087,16.5 C2.7826087,15.6032609 2.88695652,14.7065217 3.02608696,13.8456522 C3.79130435,13.7021739 5.25217391,13.4869565 7.30434783,13.2717391 C7.13043478,14.3119565 7.02608696,15.3880435 7.02608696,16.5358696 C7.02608696,17.6836957 7.13043478,18.7597826 7.26956522,19.7641304 C5.25217391,19.548913 3.75652174,19.3336957 2.99130435,19.1902174 C2.88695652,18.2934783 2.7826087,17.3967391 2.7826087,16.5 Z M9.14782609,16.5 C9.14782609,15.2804348 9.28695652,14.1326087 9.49565217,13.0565217 C11.0956522,12.948913 12.9043478,12.8413043 14.9565217,12.8413043 L14.9565217,20.1586957 C12.9391304,20.1228261 11.0956522,20.051087 9.46086957,19.9076087 C9.28695652,18.8673913 9.14782609,17.7195652 9.14782609,16.5 Z M17.2521739,2.94130435 C18.1913043,3.90978261 20.5913043,6.77934783 21.9478261,10.8684783 C20.4869565,10.7608696 18.8521739,10.6891304 17.0434783,10.6891304 L17.0434783,2.90543478 C17.1130435,2.90543478 17.1826087,2.94130435 17.2521739,2.94130435 Z M14.9565217,2.90543478 L14.9565217,10.6891304 C13.1478261,10.725 11.5130435,10.7608696 10.0521739,10.8684783 C11.373913,6.77934783 13.8086957,3.90978261 14.7130435,2.94130435 C14.8173913,2.94130435 14.8869565,2.90543478 14.9565217,2.90543478 Z M17.0434783,20.1586957 L17.0434783,12.8413043 C19.0608696,12.8771739 20.9043478,12.948913 22.5043478,13.0565217 C22.7130435,14.1326087 22.8521739,15.2804348 22.8521739,16.5 C22.8521739,17.7195652 22.7478261,18.8673913 22.5391304,19.9434783 C20.9391304,20.051087 19.0956522,20.1228261 17.0434783,20.1586957 Z M24.6608696,13.2717391 C26.7130435,13.4869565 28.173913,13.7021739 28.9391304,13.8456522 C29.1130435,14.7065217 29.2173913,15.6032609 29.2173913,16.5 C29.2173913,17.3967391 29.1130435,18.2934783 28.973913,19.1543478 C28.2086957,19.2978261 26.7478261,19.5130435 24.6956522,19.7282609 C24.8695652,18.6880435 24.9391304,17.6119565 24.9391304,16.4641304 C24.9391304,15.3880435 24.8347826,14.276087 24.6608696,13.2717391 Z M28.3130435,11.55 C27.3391304,11.4065217 25.9478261,11.2271739 24.173913,11.0478261 C23.3391304,7.96304348 21.8782609,5.48804348 20.6608696,3.73043478 C24.173913,5.09347826 26.9565217,7.96304348 28.3130435,11.55 Z M11.3391304,3.73043478 C10.0869565,5.45217391 8.66086957,7.92717391 7.82608696,11.0119565 C6.08695652,11.1554348 4.69565217,11.3706522 3.68695652,11.5141304 C5.04347826,7.96304348 7.86086957,5.09347826 11.3391304,3.73043478 Z M3.68695652,21.45 C4.66086957,21.5934783 6.05217391,21.7728261 7.79130435,21.9521739 C8.62608696,25.0369565 10.0173913,27.5119565 11.2695652,29.2336957 C7.79130435,27.8347826 5.04347826,25.001087 3.68695652,21.45 Z M20.7304348,29.2336957 C21.9826087,27.5119565 23.373913,25.0728261 24.2086957,21.9880435 C25.9478261,21.8445652 27.3391304,21.6293478 28.3130435,21.4858696 C26.9565217,25.001087 24.2086957,27.8347826 20.7304348,29.2336957 Z" id="XMLID_1666_"></path>
                        </g>
                    </g>
                </g>
            </g>
        </g>
    </g>
</svg>