<svg xmlns="http://www.w3.org/2000/svg" viewBox="0 0 233.92 233.92">
  <title>world-blue_1</title>
  <g id="51c0096d-aedf-496e-9f20-b65f0c9955fa" data-name="Layer 2">
    <g id="56497d34-df64-46cb-bca2-52c1294e645c" data-name="World">
      <g>
        <circle cx="116.96" cy="116.96" r="106.96" fill="none" stroke="#123847" stroke-linecap="round" stroke-linejoin="round" stroke-width="20"/>
        <path d="M113.7,19.4l-8.15,15.34L108.13,47l9.21,4.59,8.18,6.62-1,14.82-7.65,6.66-8.68,5.13,0,14.81,3.08,10.22L102.12,115l-8.69-4.59L84.24,114l1.55,10.72,8.7,6.63,13.8,4.57L124.14,140l8.71,9.19,7.17,8.67v7.66l-5.61,6.66-10.72,4.1-11.22,12.8,5.13,9.7-4.07,10.74-11.75,3.6L90,210,80.8,191.15l4.06-16.36,3-16.35,10.71-10.75L89.9,138.5l-12.78-6.62-1.57-15.32,3-8.69L72,99.19l-9.22-8.67,0-12.77-4.62-8.17,7.66-5.12,1.51-10.74,6.11-11.25-5.12-9.7S85.09,21,113.7,19.4Z" fill="#123847"/>
        <path d="M192.46,56.05,184.8,58.1l-9.7,6.66-10.71,7.69-5.1,8.7,2.58,12.77,9.2,0,7.67,6.63,1,11.75L174.18,120l1.55,8.69,5.63,3.56,7.67,4.08,6.65,6.12-.49,7.15-2.54,9.71-4.6,1.55-6.63,6.65,3.59,7.66,9.2,1.52S240.61,119.83,192.46,56.05Z" fill="#123847"/>
        <polygon points="173.09 109.19 172.06 113.68 168.62 116.1 166.88 111.96 169.31 109.14 170.13 103.95 173.09 109.19" fill="#123847"/>
      </g>
    </g>
  </g>
</svg>
