<svg xmlns="http://www.w3.org/2000/svg" viewBox="0 0 233.92 233.92">
  <title>world</title>
  <g id="84f61a69-12c1-4c90-b58e-db49e21d8c23" data-name="Layer 2">
    <g id="5524438e-0bf6-43f6-9724-81c4cf9e70c2" data-name="World">
      <g>
        <circle cx="116.96" cy="116.96" r="106.96" fill="none" stroke="#fff" stroke-linecap="round" stroke-linejoin="round" stroke-width="20"/>
        <path d="M113.88,19.39,105.7,34.72,108.26,47l9.2,4.6,8.17,6.64-1,14.82L117,79.69l-8.69,5.11V99.62l3.06,10.22L102.13,115l-8.69-4.6-9.2,3.58,1.54,10.73,8.68,6.64,13.8,4.6L124.1,140l8.69,9.19,7.15,8.69v7.67l-5.62,6.64-10.73,4.09L112.35,189l5.11,9.71-4.09,10.73-11.75,3.58L89.86,210l-9.19-18.9,4.08-16.36,3.07-16.35,10.73-10.73-8.69-9.2-12.77-6.64-1.53-15.33,3.06-8.69L72,99.11l-9.2-8.69V77.65l-4.6-8.18,7.67-5.11,1.53-10.73,6.13-11.24L68.4,32.68S85.26,20.93,113.88,19.39Z" fill="#fff"/>
        <path d="M192.57,56.19l-7.66,2-9.71,6.64-10.73,7.67-5.11,8.68L161.91,94h9.2l7.66,6.64,1,11.75-5.62,7.67,1.53,8.69,5.62,3.57,7.66,4.09,6.65,6.13-.51,7.16-2.56,9.7-4.6,1.54-6.64,6.64,3.58,7.66,9.19,1.54S240.6,120.06,192.57,56.19Z" fill="#fff"/>
        <polygon points="173.1 109.3 172.07 113.78 168.62 116.19 166.89 112.06 169.32 109.24 170.15 104.05 173.1 109.3" fill="#fff"/>
      </g>
    </g>
  </g>
</svg>
