<?xml version="1.0" encoding="UTF-8"?>
<svg width="1440px" height="254px" viewBox="0 0 1440 254" version="1.1" xmlns="http://www.w3.org/2000/svg" xmlns:xlink="http://www.w3.org/1999/xlink">
    <!-- Generator: Sketch 48.2 (47327) - http://www.bohemiancoding.com/sketch -->
    <title>Combined Shape</title>
    <desc>Created with Sketch.</desc>
    <defs></defs>
    <g id="Actie---Desktop-HD" stroke="none" stroke-width="1" fill="none" fill-rule="evenodd" transform="translate(0.000000, -555.000000)">
        <g id="zeebrapad" transform="translate(-65.000000, 555.000000)" fill="#FFFFFF">
            <path d="M404.842261,0 L436.153615,252.895796 L380.163004,253.812021 L348.921693,1.48195088 L404.842261,0 Z M317.842261,0 L349.153615,252.895796 L293.163004,253.812021 L261.921693,1.48195088 L317.842261,0 Z M230.842261,0 L262.153615,252.895796 L206.163004,253.812021 L174.921693,1.48195088 L230.842261,0 Z M143.842261,0 L175.153615,252.895796 L119.163004,253.812021 L87.9216928,1.48195088 L143.842261,0 Z M56.8422608,0 L88.1536155,252.895796 L32.1630042,253.812021 L0.921692786,1.48195088 L56.8422608,0 Z M492.048081,0 L523.359436,252.895796 L467.368825,253.812021 L436.127513,1.48195088 L492.048081,0 Z M579.253901,0 L610.565256,252.895796 L554.574645,253.812021 L523.333333,1.48195088 L579.253901,0 Z M666.459722,0 L697.771076,252.895796 L641.780465,253.812021 L610.539154,1.48195088 L666.459722,0 Z M753.665542,0 L784.976897,252.895796 L728.986285,253.812021 L697.744974,1.48195088 L753.665542,0 Z M840.920568,0 L872.231923,252.895796 L816.241311,253.812021 L785,1.48195088 L840.920568,0 Z M927.920568,0 L959.231923,252.895796 L903.241311,253.812021 L872,1.48195088 L927.920568,0 Z M1014.92057,0 L1046.23192,252.895796 L990.241311,253.812021 L959,1.48195088 L1014.92057,0 Z M1101.84226,0 L1133.15362,252.895796 L1077.163,253.812021 L1045.92169,1.48195088 L1101.84226,0 Z M1188.84226,0 L1220.15362,252.895796 L1164.163,253.812021 L1132.92169,1.48195088 L1188.84226,0 Z M1275.84226,0 L1307.15362,252.895796 L1251.163,253.812021 L1219.92169,1.48195088 L1275.84226,0 Z M1362.84226,0 L1394.15362,252.895796 L1338.163,253.812021 L1306.92169,1.48195088 L1362.84226,0 Z M1449.84226,0 L1481.15362,252.895796 L1425.163,253.812021 L1393.92169,1.48195088 L1449.84226,0 Z M1536.84226,0 L1568.15362,252.895796 L1512.163,253.812021 L1480.92169,1.48195088 L1536.84226,0 Z" id="Combined-Shape"></path>
        </g>
    </g>
</svg>